<?xml version="1.0" standalone="no"?>
<!DOCTYPE svg PUBLIC "-//W3C//DTD SVG 20010904//EN"
 "http://www.w3.org/TR/2001/REC-SVG-20010904/DTD/svg10.dtd">
<svg version="1.0" xmlns="http://www.w3.org/2000/svg"
 width="200.000000pt" height="200.000000pt" viewBox="0 0 200.000000 200.000000"
 preserveAspectRatio="xMidYMid meet">

<g transform="translate(0.000000,200.000000) scale(0.100000,-0.100000)"
fill="#000000" stroke="none">
<path d="M835 1961 c-96 -27 -183 -80 -260 -156 -164 -164 -225 -365 -211
-694 14 -327 85 -624 193 -811 55 -94 166 -203 245 -240 125 -59 280 -57 405
5 212 104 362 410 415 845 17 141 17 458 -1 535 -57 260 -238 460 -468 520
-78 20 -241 18 -318 -4z m285 -82 c190 -44 357 -221 404 -429 34 -151 28 -425
-14 -659 -60 -334 -184 -564 -347 -647 -53 -27 -67 -29 -163 -29 -101 0 -108
1 -168 34 -208 113 -338 430 -372 908 -12 167 -2 331 26 423 72 243 279 409
509 409 44 1 100 -4 125 -10z"/>
<path d="M940 1739 c-180 -23 -321 -142 -380 -319 -19 -55 -21 -81 -18 -162 4
-87 9 -106 41 -170 46 -94 83 -137 158 -187 258 -173 599 -57 698 237 37 109
25 257 -30 364 -34 67 -126 155 -200 192 -62 31 -89 38 -189 50 -14 1 -50 -1
-80 -5z m212 -121 c209 -97 283 -358 155 -544 -66 -97 -193 -164 -307 -164
-261 0 -446 285 -338 521 43 95 105 153 207 196 79 33 201 29 283 -9z"/>
<path d="M802 1364 c-15 -10 -22 -25 -22 -48 0 -40 15 -56 55 -56 58 0 85 60
45 100 -24 24 -48 25 -78 4z"/>
<path d="M1121 1354 c-25 -32 -26 -43 -5 -72 17 -25 74 -31 92 -9 24 30 23 56
-2 82 -32 32 -59 32 -85 -1z"/>
<path d="M874 1106 c-21 -54 124 -87 216 -50 32 13 40 21 38 38 -2 17 -9 20
-33 18 -65 -6 -142 -5 -177 2 -31 7 -39 5 -44 -8z"/>
</g>
</svg>
